<mxfile host="app.diagrams.net" modified="2023-11-06T02:45:44.712Z" agent="Mozilla/5.0 (Windows NT 10.0; Win64; x64) AppleWebKit/537.36 (KHTML, like Gecko) Chrome/119.0.0.0 Safari/537.36" etag="IJqGreG1epg7gDwEvsdp" version="22.0.8" type="device">
  <diagram id="C5RBs43oDa-KdzZeNtuy" name="Page-1">
    <mxGraphModel dx="1434" dy="782" grid="1" gridSize="10" guides="1" tooltips="1" connect="1" arrows="1" fold="1" page="1" pageScale="1" pageWidth="827" pageHeight="1169" math="0" shadow="0">
      <root>
        <mxCell id="WIyWlLk6GJQsqaUBKTNV-0" />
        <mxCell id="WIyWlLk6GJQsqaUBKTNV-1" parent="WIyWlLk6GJQsqaUBKTNV-0" />
        <mxCell id="sx61BELS5D-Q4kCDQoeI-1" style="edgeStyle=orthogonalEdgeStyle;rounded=0;orthogonalLoop=1;jettySize=auto;html=1;" edge="1" parent="WIyWlLk6GJQsqaUBKTNV-1" source="sx61BELS5D-Q4kCDQoeI-0" target="sx61BELS5D-Q4kCDQoeI-2">
          <mxGeometry relative="1" as="geometry">
            <mxPoint x="310" y="250" as="targetPoint" />
          </mxGeometry>
        </mxCell>
        <mxCell id="sx61BELS5D-Q4kCDQoeI-0" value="begin" style="ellipse;whiteSpace=wrap;html=1;" vertex="1" parent="WIyWlLk6GJQsqaUBKTNV-1">
          <mxGeometry x="250" y="100" width="120" height="80" as="geometry" />
        </mxCell>
        <mxCell id="sx61BELS5D-Q4kCDQoeI-4" style="edgeStyle=orthogonalEdgeStyle;rounded=0;orthogonalLoop=1;jettySize=auto;html=1;entryX=0.5;entryY=0;entryDx=0;entryDy=0;" edge="1" parent="WIyWlLk6GJQsqaUBKTNV-1" source="sx61BELS5D-Q4kCDQoeI-2" target="sx61BELS5D-Q4kCDQoeI-3">
          <mxGeometry relative="1" as="geometry" />
        </mxCell>
        <mxCell id="sx61BELS5D-Q4kCDQoeI-2" value="a,b" style="shape=parallelogram;perimeter=parallelogramPerimeter;whiteSpace=wrap;html=1;fixedSize=1;" vertex="1" parent="WIyWlLk6GJQsqaUBKTNV-1">
          <mxGeometry x="250" y="220" width="120" height="60" as="geometry" />
        </mxCell>
        <mxCell id="sx61BELS5D-Q4kCDQoeI-5" style="edgeStyle=orthogonalEdgeStyle;rounded=0;orthogonalLoop=1;jettySize=auto;html=1;" edge="1" parent="WIyWlLk6GJQsqaUBKTNV-1" source="sx61BELS5D-Q4kCDQoeI-3">
          <mxGeometry relative="1" as="geometry">
            <mxPoint x="310" y="430" as="targetPoint" />
          </mxGeometry>
        </mxCell>
        <mxCell id="sx61BELS5D-Q4kCDQoeI-3" value="x" style="rounded=0;whiteSpace=wrap;html=1;" vertex="1" parent="WIyWlLk6GJQsqaUBKTNV-1">
          <mxGeometry x="250" y="320" width="120" height="60" as="geometry" />
        </mxCell>
        <mxCell id="sx61BELS5D-Q4kCDQoeI-8" style="edgeStyle=orthogonalEdgeStyle;rounded=0;orthogonalLoop=1;jettySize=auto;html=1;" edge="1" parent="WIyWlLk6GJQsqaUBKTNV-1" source="sx61BELS5D-Q4kCDQoeI-7">
          <mxGeometry relative="1" as="geometry">
            <mxPoint x="470" y="470" as="targetPoint" />
          </mxGeometry>
        </mxCell>
        <mxCell id="sx61BELS5D-Q4kCDQoeI-17" style="edgeStyle=orthogonalEdgeStyle;rounded=0;orthogonalLoop=1;jettySize=auto;html=1;" edge="1" parent="WIyWlLk6GJQsqaUBKTNV-1" source="sx61BELS5D-Q4kCDQoeI-7">
          <mxGeometry relative="1" as="geometry">
            <mxPoint x="310" y="650" as="targetPoint" />
          </mxGeometry>
        </mxCell>
        <mxCell id="sx61BELS5D-Q4kCDQoeI-7" value="a=0" style="rhombus;whiteSpace=wrap;html=1;" vertex="1" parent="WIyWlLk6GJQsqaUBKTNV-1">
          <mxGeometry x="270" y="430" width="80" height="80" as="geometry" />
        </mxCell>
        <mxCell id="sx61BELS5D-Q4kCDQoeI-9" value="true" style="text;html=1;align=center;verticalAlign=middle;resizable=0;points=[];autosize=1;strokeColor=none;fillColor=none;" vertex="1" parent="WIyWlLk6GJQsqaUBKTNV-1">
          <mxGeometry x="390" y="440" width="40" height="30" as="geometry" />
        </mxCell>
        <mxCell id="sx61BELS5D-Q4kCDQoeI-11" style="edgeStyle=orthogonalEdgeStyle;rounded=0;orthogonalLoop=1;jettySize=auto;html=1;" edge="1" parent="WIyWlLk6GJQsqaUBKTNV-1" source="sx61BELS5D-Q4kCDQoeI-10">
          <mxGeometry relative="1" as="geometry">
            <mxPoint x="690" y="470" as="targetPoint" />
          </mxGeometry>
        </mxCell>
        <mxCell id="sx61BELS5D-Q4kCDQoeI-14" style="edgeStyle=orthogonalEdgeStyle;rounded=0;orthogonalLoop=1;jettySize=auto;html=1;" edge="1" parent="WIyWlLk6GJQsqaUBKTNV-1" source="sx61BELS5D-Q4kCDQoeI-10">
          <mxGeometry relative="1" as="geometry">
            <mxPoint x="510" y="340" as="targetPoint" />
          </mxGeometry>
        </mxCell>
        <mxCell id="sx61BELS5D-Q4kCDQoeI-10" value="b=0" style="rhombus;whiteSpace=wrap;html=1;" vertex="1" parent="WIyWlLk6GJQsqaUBKTNV-1">
          <mxGeometry x="470" y="430" width="80" height="80" as="geometry" />
        </mxCell>
        <mxCell id="sx61BELS5D-Q4kCDQoeI-12" value="true" style="text;html=1;align=center;verticalAlign=middle;resizable=0;points=[];autosize=1;strokeColor=none;fillColor=none;" vertex="1" parent="WIyWlLk6GJQsqaUBKTNV-1">
          <mxGeometry x="600" y="440" width="40" height="30" as="geometry" />
        </mxCell>
        <mxCell id="sx61BELS5D-Q4kCDQoeI-25" style="edgeStyle=orthogonalEdgeStyle;rounded=0;orthogonalLoop=1;jettySize=auto;html=1;" edge="1" parent="WIyWlLk6GJQsqaUBKTNV-1" source="sx61BELS5D-Q4kCDQoeI-13">
          <mxGeometry relative="1" as="geometry">
            <mxPoint x="680" y="680" as="targetPoint" />
          </mxGeometry>
        </mxCell>
        <mxCell id="sx61BELS5D-Q4kCDQoeI-13" value="p.trinh vo so nghiem" style="shape=parallelogram;perimeter=parallelogramPerimeter;whiteSpace=wrap;html=1;fixedSize=1;" vertex="1" parent="WIyWlLk6GJQsqaUBKTNV-1">
          <mxGeometry x="680" y="440" width="150" height="60" as="geometry" />
        </mxCell>
        <mxCell id="sx61BELS5D-Q4kCDQoeI-15" value="false" style="text;html=1;align=center;verticalAlign=middle;resizable=0;points=[];autosize=1;strokeColor=none;fillColor=none;" vertex="1" parent="WIyWlLk6GJQsqaUBKTNV-1">
          <mxGeometry x="505" y="378" width="50" height="30" as="geometry" />
        </mxCell>
        <mxCell id="sx61BELS5D-Q4kCDQoeI-22" style="edgeStyle=orthogonalEdgeStyle;rounded=0;orthogonalLoop=1;jettySize=auto;html=1;" edge="1" parent="WIyWlLk6GJQsqaUBKTNV-1" source="sx61BELS5D-Q4kCDQoeI-16">
          <mxGeometry relative="1" as="geometry">
            <mxPoint x="1010" y="700" as="targetPoint" />
          </mxGeometry>
        </mxCell>
        <mxCell id="sx61BELS5D-Q4kCDQoeI-16" value="p.trinh vo ngjiem" style="shape=parallelogram;perimeter=parallelogramPerimeter;whiteSpace=wrap;html=1;fixedSize=1;" vertex="1" parent="WIyWlLk6GJQsqaUBKTNV-1">
          <mxGeometry x="460" y="280" width="120" height="60" as="geometry" />
        </mxCell>
        <mxCell id="sx61BELS5D-Q4kCDQoeI-18" value="false" style="text;html=1;align=center;verticalAlign=middle;resizable=0;points=[];autosize=1;strokeColor=none;fillColor=none;" vertex="1" parent="WIyWlLk6GJQsqaUBKTNV-1">
          <mxGeometry x="305" y="548" width="50" height="30" as="geometry" />
        </mxCell>
        <mxCell id="sx61BELS5D-Q4kCDQoeI-21" style="edgeStyle=orthogonalEdgeStyle;rounded=0;orthogonalLoop=1;jettySize=auto;html=1;entryX=0;entryY=0.5;entryDx=0;entryDy=0;" edge="1" parent="WIyWlLk6GJQsqaUBKTNV-1" source="sx61BELS5D-Q4kCDQoeI-19" target="sx61BELS5D-Q4kCDQoeI-20">
          <mxGeometry relative="1" as="geometry" />
        </mxCell>
        <mxCell id="sx61BELS5D-Q4kCDQoeI-19" value="p.trinh co nghiem -b/a" style="shape=parallelogram;perimeter=parallelogramPerimeter;whiteSpace=wrap;html=1;fixedSize=1;" vertex="1" parent="WIyWlLk6GJQsqaUBKTNV-1">
          <mxGeometry x="250" y="650" width="160" height="60" as="geometry" />
        </mxCell>
        <mxCell id="sx61BELS5D-Q4kCDQoeI-24" style="edgeStyle=orthogonalEdgeStyle;rounded=0;orthogonalLoop=1;jettySize=auto;html=1;" edge="1" parent="WIyWlLk6GJQsqaUBKTNV-1" source="sx61BELS5D-Q4kCDQoeI-20">
          <mxGeometry relative="1" as="geometry">
            <mxPoint x="1010" y="690" as="targetPoint" />
          </mxGeometry>
        </mxCell>
        <mxCell id="sx61BELS5D-Q4kCDQoeI-20" value="end" style="ellipse;whiteSpace=wrap;html=1;" vertex="1" parent="WIyWlLk6GJQsqaUBKTNV-1">
          <mxGeometry x="555" y="640" width="120" height="80" as="geometry" />
        </mxCell>
        <mxCell id="sx61BELS5D-Q4kCDQoeI-23" value="" style="shape=link;html=1;rounded=0;" edge="1" parent="WIyWlLk6GJQsqaUBKTNV-1">
          <mxGeometry width="100" relative="1" as="geometry">
            <mxPoint x="360" y="500" as="sourcePoint" />
            <mxPoint x="460" y="500" as="targetPoint" />
          </mxGeometry>
        </mxCell>
      </root>
    </mxGraphModel>
  </diagram>
</mxfile>
